HIERARCHY
ROOT Hips
{
	OFFSET 0.000000 35.082581 0.000000
	CHANNELS 6 Xposition Yposition Zposition Xrotation Yrotation Zrotation 
	JOINT Spine
	{
		OFFSET 0.000000 6.876099 0.125700
		CHANNELS 3 Xrotation Yrotation Zrotation
		JOINT Spine1
		{
			OFFSET 0.000000 5.730043 0.104720
			CHANNELS 3 Xrotation Yrotation Zrotation
			JOINT Spine1_split
			{
				OFFSET 0.000000 5.730043 0.104720
				CHANNELS 3 Xrotation Yrotation Zrotation
				JOINT Spine2
				{
					OFFSET 0.000000 5.730043 0.104720
					CHANNELS 3 Xrotation Yrotation Zrotation
					JOINT Neck
					{
						OFFSET 0.000000 10.314075 0.188496
						CHANNELS 3 Xrotation Yrotation Zrotation
						JOINT Head
						{
							OFFSET 0.000000 7.643700 -2.377400
							CHANNELS 3 Xrotation Yrotation Zrotation
							JOINT HeadTop_End
							{
								OFFSET 0.000000 43.788605 -13.619600
								CHANNELS 3 Xrotation Yrotation Zrotation
								End Site
								{
									OFFSET 0.000000 0.000000 0.000000
								}
							}
						}
					}
					JOINT LeftShoulder
					{
						OFFSET 2.196100 4.412489 0.087492
						CHANNELS 3 Xrotation Yrotation Zrotation
						JOINT LeftShoulder_split
						{
							OFFSET 2.196100 4.412489 0.087492
							CHANNELS 3 Xrotation Yrotation Zrotation
							JOINT LeftArm
							{
								OFFSET 8.771219 -2.981674 -0.026999
								CHANNELS 3 Xrotation Yrotation Zrotation
								JOINT LeftForeArm
								{
									OFFSET 8.512804 0.000000 -0.000000
									CHANNELS 3 Xrotation Yrotation Zrotation
									JOINT LeftHand
									{
										OFFSET 18.484802 0.000000 -0.000000
										CHANNELS 3 Xrotation Yrotation Zrotation
										JOINT LeftHandThumb1
										{
											OFFSET 2.499420 -1.158070 2.653252
											CHANNELS 3 Xrotation Yrotation Zrotation
											JOINT LeftHandThumb2
											{
												OFFSET 2.370079 -1.368366 1.368366
												CHANNELS 3 Xrotation Yrotation Zrotation
												JOINT LeftHandThumb3
												{
													OFFSET 2.676727 -1.545410 1.545409
													CHANNELS 3 Xrotation Yrotation Zrotation
													JOINT LeftHandThumb4
													{
														OFFSET 1.692226 -0.977005 0.977007
														CHANNELS 3 Xrotation Yrotation Zrotation
														End Site
														{
															OFFSET 0.000000 0.000000 0.000000
														}
													}
												}
											}
										}
										JOINT LeftHandIndex1
										{
											OFFSET 7.924831 -0.457527 2.345128
											CHANNELS 3 Xrotation Yrotation Zrotation
											JOINT LeftHandIndex2
											{
												OFFSET 3.643303 0.000000 0.000000
												CHANNELS 3 Xrotation Yrotation Zrotation
												JOINT LeftHandIndex3
												{
													OFFSET 3.810799 0.000000 0.000000
													CHANNELS 3 Xrotation Yrotation Zrotation
													JOINT LeftHandIndex4
													{
														OFFSET 2.403702 0.000000 0.000000
														CHANNELS 3 Xrotation Yrotation Zrotation
														End Site
														{
															OFFSET 0.000000 0.000000 0.000000
														}
													}
												}
											}
										}
										JOINT LeftHandMiddle1
										{
											OFFSET 8.563995 0.000000 -0.000000
											CHANNELS 3 Xrotation Yrotation Zrotation
											JOINT LeftHandMiddle2
											{
												OFFSET 3.861618 0.000000 0.000000
												CHANNELS 3 Xrotation Yrotation Zrotation
												JOINT LeftHandMiddle3
												{
													OFFSET 3.701603 0.000000 0.000000
													CHANNELS 3 Xrotation Yrotation Zrotation
													JOINT LeftHandMiddle4
													{
														OFFSET 2.322544 0.000000 0.000000
														CHANNELS 3 Xrotation Yrotation Zrotation
														End Site
														{
															OFFSET 0.000000 0.000000 0.000000
														}
													}
												}
											}
										}
										JOINT LeftHandRing1
										{
											OFFSET 8.426460 -0.424637 -3.286992
											CHANNELS 3 Xrotation Yrotation Zrotation
											JOINT LeftHandRing2
											{
												OFFSET 3.126408 0.000000 0.000000
												CHANNELS 3 Xrotation Yrotation Zrotation
												JOINT LeftHandRing3
												{
													OFFSET 3.085026 0.000000 0.000000
													CHANNELS 3 Xrotation Yrotation Zrotation
													JOINT LeftHandRing4
													{
														OFFSET 1.644005 0.000000 0.000000
														CHANNELS 3 Xrotation Yrotation Zrotation
														End Site
														{
															OFFSET 0.000000 0.000000 0.000000
														}
													}
												}
											}
										}
									}
								}
							}
						}
					}
					JOINT RightShoulder
					{
						OFFSET -2.196100 4.412496 0.070690
						CHANNELS 3 Xrotation Yrotation Zrotation
						JOINT RightShoulder_split
						{
							OFFSET -2.196100 4.412496 0.070690
							CHANNELS 3 Xrotation Yrotation Zrotation
							JOINT RightArm
							{
								OFFSET -8.771282 -2.981682 -0.094208
								CHANNELS 3 Xrotation Yrotation Zrotation
								JOINT RightForeArm
								{
									OFFSET -8.494598 0.000000 0.000000
									CHANNELS 3 Xrotation Yrotation Zrotation
									JOINT RightHand
									{
										OFFSET -18.483803 0.000000 0.000001
										CHANNELS 3 Xrotation Yrotation Zrotation
										JOINT RightHandThumb1
										{
											OFFSET -2.527351 -1.008072 2.575253
											CHANNELS 3 Xrotation Yrotation Zrotation
											JOINT RightHandThumb2
											{
												OFFSET -2.321518 -1.340328 1.340329
												CHANNELS 3 Xrotation Yrotation Zrotation
												JOINT RightHandThumb3
												{
													OFFSET -2.657753 -1.534454 1.534455
													CHANNELS 3 Xrotation Yrotation Zrotation
													JOINT RightHandThumb4
													{
														OFFSET -1.807510 -1.043568 1.043567
														CHANNELS 3 Xrotation Yrotation Zrotation
														End Site
														{
															OFFSET 0.000000 0.000000 0.000000
														}
													}
												}
											}
										}
										JOINT RightHandIndex1
										{
											OFFSET -8.811420 0.015533 2.887987
											CHANNELS 3 Xrotation Yrotation Zrotation
											JOINT RightHandIndex2
											{
												OFFSET -3.537502 0.000000 0.000000
												CHANNELS 3 Xrotation Yrotation Zrotation
												JOINT RightHandIndex3
												{
													OFFSET -3.356201 0.000000 0.000000
													CHANNELS 3 Xrotation Yrotation Zrotation
													JOINT RightHandIndex4
													{
														OFFSET -1.933098 0.000000 0.000000
														CHANNELS 3 Xrotation Yrotation Zrotation
														End Site
														{
															OFFSET 0.000000 0.000000 0.000000
														}
													}
												}
											}
										}
										JOINT RightHandMiddle1
										{
											OFFSET -8.178135 0.000000 0.000000
											CHANNELS 3 Xrotation Yrotation Zrotation
											JOINT RightHandMiddle2
											{
												OFFSET -3.901302 0.000000 0.000000
												CHANNELS 3 Xrotation Yrotation Zrotation
												JOINT RightHandMiddle3
												{
													OFFSET -3.909599 0.000000 0.000000
													CHANNELS 3 Xrotation Yrotation Zrotation
													JOINT RightHandMiddle4
													{
														OFFSET -2.376003 0.000000 0.000000
														CHANNELS 3 Xrotation Yrotation Zrotation
														End Site
														{
															OFFSET 0.000000 0.000000 0.000000
														}
													}
												}
											}
										}
										JOINT RightHandRing1
										{
											OFFSET -7.559013 0.014137 -2.865403
											CHANNELS 3 Xrotation Yrotation Zrotation
											JOINT RightHandRing2
											{
												OFFSET -3.449306 0.000000 0.000000
												CHANNELS 3 Xrotation Yrotation Zrotation
												JOINT RightHandRing3
												{
													OFFSET -3.362106 0.000000 0.000000
													CHANNELS 3 Xrotation Yrotation Zrotation
													JOINT RightHandRing4
													{
														OFFSET -2.076401 0.000000 0.000000
														CHANNELS 3 Xrotation Yrotation Zrotation
														End Site
														{
															OFFSET 0.000000 0.000000 0.000000
														}
													}
												}
											}
										}
									}
								}
							}
						}
					}
				}
			}
		}
	}
	JOINT LeftUpLeg
	{
		OFFSET 10.205400 -3.823500 0.155100
		CHANNELS 3 Xrotation Yrotation Zrotation
		JOINT LeftLeg
		{
			OFFSET 0.708757 -12.982077 0.567790
			CHANNELS 3 Xrotation Yrotation Zrotation
			JOINT LeftFoot
			{
				OFFSET -0.708756 -10.717838 -2.184338
				CHANNELS 3 Xrotation Yrotation Zrotation
				JOINT LeftToeBase
				{
					OFFSET 0.108149 -7.191104 7.560241
					CHANNELS 3 Xrotation Yrotation Zrotation
					JOINT LeftToe_End
					{
						OFFSET 0.070230 0.081724 4.490308
						CHANNELS 3 Xrotation Yrotation Zrotation
						End Site
						{
							OFFSET 0.000000 0.000000 0.000000
						}
					}
				}
			}
		}
	}
	JOINT RightUpLeg
	{
		OFFSET -10.205400 -3.823500 0.005500
		CHANNELS 3 Xrotation Yrotation Zrotation
		JOINT RightLeg
		{
			OFFSET -0.708756 -12.982134 0.610632
			CHANNELS 3 Xrotation Yrotation Zrotation
			JOINT RightFoot
			{
				OFFSET 0.708754 -10.717769 -1.945823
				CHANNELS 3 Xrotation Yrotation Zrotation
				JOINT RightToeBase
				{
					OFFSET -0.108140 -7.191069 7.372968
					CHANNELS 3 Xrotation Yrotation Zrotation
					JOINT RightToe_End
					{
						OFFSET -0.070227 0.081735 4.479403
						CHANNELS 3 Xrotation Yrotation Zrotation
						End Site
						{
							OFFSET 0.000000 0.000000 0.000000
						}
					}
				}
			}
		}
	}
}
MOTION
Frames: 4
Frame Time: 0.016667
1.589942 4.276300 -4.602383 87.458113 0.115176 1.204181 3.816400 0.550154 -1.266790 0.793260 0.138200 -0.141419 0.000000 0.000000 0.000000 0.792537 0.141294 -0.141442 -5.136616 -13.863061 6.464561 -18.401127 -57.030994 -18.459157 -0.000000 0.000002 -0.000000 3.766319 -21.296528 -1.257023 0.000000 0.000000 0.000000 15.600396 -18.626725 -61.954453 -0.000002 -18.654946 0.000008 42.089022 7.016511 -15.750992 -1.540047 3.690167 6.142363 3.939053 7.948722 0.746793 -0.579469 1.574993 2.538733 -0.000002 -0.000001 -0.000001 0.298627 2.009581 -16.903115 0.539669 2.676807 -22.793525 0.036388 0.708422 -5.880821 0.000001 0.000000 0.000001 0.298065 2.007748 -16.887093 0.540427 2.678562 -22.809581 0.036388 0.708416 -5.880816 -0.000003 0.000002 -0.000001 0.298626 2.009591 -16.903105 0.539676 2.676796 -22.793540 0.036387 0.708413 -5.880822 -0.000001 0.000000 0.000001 0.640309 15.700669 9.197096 0.000000 0.000000 0.000000 13.898623 -3.320492 53.523483 -0.000001 31.875311 0.000003 15.264798 -23.834174 10.590715 -1.849242 -3.581790 -6.586127 4.637207 -8.634121 -0.225403 -1.273751 0.137311 -2.094867 0.000001 -0.000002 -0.000002 0.480700 -2.544857 21.389427 1.003288 -3.603124 31.111297 0.099718 -1.175701 9.694890 -0.000001 0.000001 0.000001 0.480691 -2.544865 21.389427 1.003310 -3.603112 31.111300 0.099707 -1.175692 9.694902 -0.000004 0.000003 -0.000001 0.480698 -2.544857 21.389426 1.003300 -3.603111 31.111293 0.099711 -1.175703 9.694897 -0.000002 0.000001 -0.000001 -20.555828 5.201379 10.562665 28.953841 11.865724 0.006035 42.707387 28.376509 -17.177144 13.788594 3.841992 15.569643 -0.000000 -0.000000 0.000004 -16.190216 -7.335602 -11.277733 24.518614 -14.426114 -0.301865 44.100090 -27.768424 24.929898 15.340745 -2.472367 -12.185219 0.000000 0.000001 -0.000001 
1.590243 4.276985 -4.602180 87.448633 0.118793 1.202674 3.824923 0.547432 -1.264268 0.795028 0.137604 -0.141028 0.000000 0.000000 0.000000 0.794331 0.140705 -0.141052 -5.134265 -13.862905 6.460975 -18.393358 -57.036444 -18.452398 -0.000001 -0.000000 0.000000 3.774316 -21.342097 -1.254802 0.000000 0.000000 0.000000 15.591963 -18.591051 -61.965279 0.000002 -18.641620 0.000017 42.085481 7.002001 -15.750930 -1.540036 3.690179 6.142349 3.939041 7.948689 0.746802 -0.579467 1.575002 2.538725 -0.000001 0.000001 -0.000002 0.298630 2.009592 -16.903108 0.539654 2.676798 -22.793535 0.036380 0.708421 -5.880824 0.000001 -0.000000 0.000002 0.298062 2.007733 -16.887096 0.540414 2.678590 -22.809553 0.036394 0.708401 -5.880809 0.000000 -0.000000 -0.000004 0.298627 2.009601 -16.903101 0.539664 2.676786 -22.793526 0.036392 0.708418 -5.880823 0.000001 -0.000000 0.000002 0.641035 15.689940 9.189840 0.000000 0.000000 0.000000 13.871902 -3.307233 53.531550 -0.000006 31.852099 0.000006 15.245621 -23.874469 10.516415 -1.849261 -3.581792 -6.586129 4.637201 -8.634132 -0.225403 -1.273759 0.137312 -2.094873 0.000000 -0.000000 -0.000000 0.480693 -2.544870 21.389412 1.003295 -3.603113 31.111293 0.099711 -1.175686 9.694905 0.000003 -0.000002 -0.000001 0.480697 -2.544869 21.389424 1.003299 -3.603109 31.111307 0.099707 -1.175693 9.694896 -0.000001 0.000003 -0.000002 0.480703 -2.544867 21.389422 1.003296 -3.603114 31.111303 0.099704 -1.175685 9.694905 0.000000 -0.000002 0.000002 -20.539856 5.209366 10.562206 28.945498 11.880043 0.009088 42.704334 28.385409 -17.191053 13.787950 3.836352 15.557139 -0.000002 -0.000002 0.000002 -16.190694 -7.336571 -11.280752 24.529789 -14.416917 -0.294426 44.103286 -27.770465 24.913093 15.331352 -2.474563 -12.193036 -0.000003 0.000000 -0.000002 
1.589960 4.277433 -4.603207 87.456324 0.123404 1.205916 3.815301 0.543729 -1.264157 0.792730 0.136767 -0.140974 0.000000 0.000000 0.000000 0.792046 0.139859 -0.141001 -5.125205 -13.862461 6.457382 -18.396660 -57.041676 -18.453988 -0.000000 -0.000002 -0.000000 3.780977 -21.376658 -1.256570 0.000000 0.000000 0.000000 15.556885 -18.576976 -61.979677 -0.000001 -18.573168 -0.000008 42.065206 6.975384 -15.756058 -1.540040 3.690182 6.142358 3.939044 7.948724 0.746806 -0.579469 1.575010 2.538716 -0.000001 -0.000000 -0.000002 0.298628 2.009593 -16.903098 0.539655 2.676784 -22.793550 0.036388 0.708412 -5.880822 0.000000 0.000002 -0.000001 0.298063 2.007748 -16.887098 0.540421 2.678565 -22.809574 0.036386 0.708413 -5.880822 0.000002 -0.000000 0.000002 0.298623 2.009593 -16.903111 0.539663 2.676791 -22.793548 0.036386 0.708412 -5.880818 0.000000 -0.000002 0.000005 0.640480 15.698730 9.195495 0.000000 0.000000 0.000000 13.865619 -3.329072 53.534910 0.000018 31.844022 0.000003 15.261236 -23.895900 10.436552 -1.849260 -3.581789 -6.586145 4.637210 -8.634134 -0.225404 -1.273758 0.137308 -2.094864 0.000001 0.000000 -0.000002 0.480684 -2.544875 21.389390 1.003310 -3.603122 31.111314 0.099711 -1.175696 9.694897 -0.000000 -0.000000 0.000001 0.480681 -2.544879 21.389398 1.003314 -3.603125 31.111314 0.099707 -1.175698 9.694903 0.000000 0.000004 -0.000001 0.480683 -2.544879 21.389398 1.003322 -3.603118 31.111310 0.099716 -1.175703 9.694898 -0.000002 -0.000000 0.000002 -20.537025 5.207635 10.548657 28.930854 11.896041 0.026245 42.713510 28.397726 -17.232253 13.792222 3.830142 15.542888 0.000001 -0.000001 -0.000000 -16.197954 -7.339033 -11.286718 24.538085 -14.420140 -0.293475 44.100059 -27.768115 24.934131 15.346825 -2.470298 -12.179441 -0.000003 0.000002 0.000001 
1.589027 4.277992 -4.605011 87.467669 0.125843 1.211084 3.803661 0.541015 -1.264759 0.789977 0.136171 -0.140839 0.000000 0.000000 0.000000 0.789286 0.139252 -0.140869 -5.121389 -13.861864 6.453984 -18.401148 -57.042246 -18.461743 -0.000001 0.000002 0.000000 3.780659 -21.372239 -1.259640 0.000000 0.000000 0.000000 15.494907 -18.603297 -61.991767 0.000015 -18.436588 0.000011 42.055558 6.923384 -15.795210 -1.540051 3.690180 6.142365 3.939055 7.948697 0.746801 -0.579472 1.575001 2.538732 0.000000 0.000002 -0.000004 0.298620 2.009583 -16.903101 0.539663 2.676796 -22.793557 0.036389 0.708428 -5.880826 -0.000002 -0.000001 -0.000000 0.298065 2.007743 -16.887103 0.540411 2.678574 -22.809564 0.036395 0.708423 -5.880828 -0.000001 0.000000 -0.000002 0.298618 2.009590 -16.903096 0.539667 2.676790 -22.793545 0.036390 0.708425 -5.880820 -0.000001 -0.000001 0.000001 0.641002 15.712333 9.191122 0.000000 0.000000 0.000000 13.846825 -3.359445 53.548823 -0.000014 31.824471 -0.000018 15.286117 -23.918055 10.367430 -1.849244 -3.581795 -6.586131 4.637199 -8.634123 -0.225397 -1.273776 0.137309 -2.094878 0.000001 -0.000000 -0.000000 0.480696 -2.544861 21.389412 1.003300 -3.603114 31.111303 0.099709 -1.175709 9.694893 -0.000001 0.000001 -0.000001 0.480693 -2.544866 21.389419 1.003312 -3.603112 31.111320 0.099696 -1.175710 9.694895 -0.000002 -0.000001 -0.000001 0.480700 -2.544867 21.389417 1.003313 -3.603116 31.111317 0.099679 -1.175698 9.694884 -0.000001 -0.000003 0.000002 -20.550168 5.199041 10.535405 28.932029 11.898329 0.041123 42.722089 28.405932 -17.259132 13.795432 3.828267 15.538438 0.000001 0.000004 0.000000 -16.192411 -7.343540 -11.287174 24.526931 -14.441503 -0.304322 44.095425 -27.761350 24.981907 15.382009 -2.460017 -12.146096 0.000000 0.000001 -0.000002 
